<?xml version="1.0" encoding="utf-8"?>
<!-- Generator: Adobe Illustrator 22.0.1, SVG Export Plug-In . SVG Version: 6.00 Build 0)  -->
<svg version="1.1" id="圖層_1" xmlns="http://www.w3.org/2000/svg" xmlns:xlink="http://www.w3.org/1999/xlink" x="0px" y="0px"
	 viewBox="0 0 266 68" style="enable-background:new 0 0 266 68;" xml:space="preserve">
<style type="text/css">
	.st0{fill:#58595B;}
	.st1{fill:#A8B237;}
	.st2{fill:#00669A;}
</style>
<title>工作區域 1</title>
<g>
	<g>
		<path class="st0" d="M116.1,52.5c-0.6,0.6-1.2,0.9-1.9,0.9c-0.5,0-0.8-0.1-1.1-0.3c-0.2-0.2-0.3-0.5-0.3-1v-2.7h0.4
			c0.1,0,0.1,0.1,0,0.2v2.5c0,0.3,0.1,0.6,0.2,0.7c0.3,0.2,0.5,0.2,0.8,0.2c0.5,0,1-0.3,1.6-0.9L116.1,52.5z M115.2,50.2l-0.2,0.3
			c-0.3-0.2-0.5-0.3-0.8-0.5l0.2-0.3C114.7,49.9,114.9,50.1,115.2,50.2z M115.6,49.8l-0.2,0.3c-0.3-0.2-0.5-0.4-0.8-0.5l0.2-0.3
			C115.1,49.5,115.3,49.6,115.6,49.8z"/>
		<path class="st0" d="M119.6,50.9c0.2,0.2,0.3,0.5,0.3,0.9s-0.1,0.6-0.3,0.8c-0.2,0.2-0.6,0.3-1,0.3c-0.1,0.3-0.3,0.6-0.5,0.8
			l-0.3-0.2c0.2-0.2,0.3-0.4,0.4-0.7c-0.3-0.1-0.5-0.4-0.7-0.7l0.3-0.2c0.1,0.3,0.3,0.5,0.5,0.6c0-0.2,0.1-0.4,0.1-0.5v-0.5
			c0-0.4,0-0.6,0-0.5c-0.3,0.1-0.5,0.2-0.7,0.4c-0.4,0.4-0.6,0.9-0.6,1.4c0,0.1,0,0.2,0.1,0.4l-0.4,0.1c-0.2-0.9-0.2-1.8,0-2.8
			l0.4,0.1c0.1,0.1,0.1,0.1,0,0.1c-0.1,0.5-0.2,0.8-0.2,1.1c0.2-0.3,0.3-0.5,0.5-0.7c0.3-0.3,0.6-0.4,0.9-0.5V50h0.4
			c0.1,0,0.1,0.1,0,0.2v0.4C119.1,50.6,119.4,50.7,119.6,50.9z M119.3,52.4c0.1-0.1,0.2-0.3,0.2-0.6s-0.1-0.5-0.2-0.6
			S119,51,118.7,51c0,0.2,0,0.4,0,0.5V52c0,0.1,0,0.3-0.1,0.5C119,52.6,119.2,52.5,119.3,52.4z"/>
		<path class="st0" d="M122.7,52.6c0.3-0.3,0.4-0.6,0.4-0.9c0-0.2-0.1-0.4-0.2-0.6c-0.1-0.1-0.3-0.1-0.5-0.1c-0.4,0-0.9,0.2-1.6,0.4
			l-0.2-0.5c0.5-0.1,1-0.2,1.4-0.3c0.2-0.1,0.4-0.1,0.5-0.1c0.3,0,0.5,0.1,0.7,0.3c0.2,0.2,0.3,0.5,0.3,0.9c0,0.5-0.2,1-0.5,1.3
			c-0.3,0.3-0.8,0.6-1.3,0.7l-0.3-0.5C122,53.1,122.4,52.9,122.7,52.6z M123.1,50c-0.5-0.1-1.2-0.2-1.9-0.3l0.1-0.5
			c0.7,0.2,1.4,0.3,1.9,0.3L123.1,50z"/>
	</g>
</g>
<g>
	<g>
		<path class="st0" d="M139.4,50.9c-0.3,0-0.6,0.1-0.9,0.1v-0.4c0.2,0,0.6,0,1-0.1c0.1-0.4,0.2-0.8,0.3-1.3l0.4,0.1
			c0.2,0.1,0.2,0.1,0,0.2c-0.1,0.3-0.2,0.6-0.2,0.9c0.2,0,0.3,0,0.5,0s0.3,0,0.4,0.1c0.2,0.2,0.2,0.5,0.2,1.1c0,0.8-0.1,1.3-0.3,1.5
			c-0.1,0.1-0.3,0.2-0.5,0.2c-0.3,0-0.5-0.1-0.8-0.4l0.3-0.4c0.2,0.2,0.4,0.3,0.5,0.3c0.1,0,0.1,0,0.2-0.1c0.1-0.1,0.2-0.6,0.2-1.2
			c0-0.4,0-0.6-0.1-0.7c0,0-0.1-0.1-0.2-0.1s-0.3,0-0.5,0c-0.3,1-0.6,1.8-1,2.5l-0.5-0.2C138.8,52.7,139.1,51.9,139.4,50.9z
			 M141.4,50.3l0.4-0.3c0.5,0.6,0.9,1.2,1.1,2l-0.4,0.2C142.2,51.4,141.8,50.7,141.4,50.3z"/>
		<path class="st0" d="M143.6,51c0.9-0.8,1.4-1.4,1.7-1.8l0.4,0.3c0.1,0.1,0.1,0.2-0.1,0.2c-0.2,0.3-0.7,0.8-1.6,1.6
			c-0.1,0.1-0.1,0.1-0.1,0.1c0,0.1,0,0.1,0.1,0.2c0.7,0.6,1.4,1.1,1.8,1.7l-0.4,0.4c-0.5-0.5-1-1.1-1.7-1.7
			c-0.2-0.2-0.3-0.3-0.3-0.5S143.5,51.1,143.6,51z"/>
	</g>
</g>
<path class="st1" d="M159.8,37.8l-0.7-6.1l0.2-5l0,0c0-0.3-0.5-2.7-1-3.5c-0.5-0.9-2.5-2.4-2.9-2.7c-0.4-0.3-3.3-2.4-5.2-3.8
	l-1.6-1.2c0,0-5-5.1-6.8-6.6c-1.4-1.2-6-4.3-6-4.3c-0.2-0.1-4-3.2-5.8-3.4c-0.2,0-0.4,0-0.5,0c-1.2,0-2.4,0.5-4.2,1.9
	c-0.3,0.2-2.1,1.9-2.6,2.6c-0.2,0.3-2.1,1.9-3.3,3l0,0c-1.3,1.1-2.5,2.1-3,2.6c-0.4,0.4-0.8,0.7-1.3,1c-0.8,0.6-1.7,1.2-2.4,2.3
	c-0.5,0.9-1.5,1.9-2.3,2.8c-0.6,0.7-1,1.1-1.1,1.3c-0.2,0.4-1.1,1.2-1.6,1.7c-0.2,0.2-0.4,0.4-0.5,0.5c-0.2,0.2-1,0.7-1.6,1.1
	c-1,0.7-1.4,0.9-1.5,1.1c-0.3,0.4-1.1,2.4-1.4,3.6c-0.3,1.1-0.3,7.2,0,8c0.1,0.4-0.2,2.9-0.3,4.1c-0.1,0.5-0.1,0.9-0.1,1.2
	c-0.2,1.7-0.4,7.8-0.4,8.2c0,0.3,0.3,4,0.4,4.8c0.1,0.3,0,2.4,0,2.8c0,0.2,0.2,3,0.8,3.6c0.7,0.7,2.7,0.9,4.5,1
	c0.2,0,0.9,0.1,1.2,0.1c1.8,0,5.5-0.5,5.5-0.5c0.2,0,0.4-0.1,0.6-0.1c0.8-0.1,6.3-0.4,7.7-0.4c0.1,0,7.6,0.1,7.8,0.2
	c0.2,0,1,0.1,4.5,0.1h2.1c0.8,0,1.3,0,1.5,0c1.5,0,6.3,0.2,7.7,0.3h0.1c0.1,0,5.6,0,7.5,0.3c0.2,0,0.5,0,0.7,0
	c1.5,0,3.4-0.4,4.1-1.2c0.8-0.8,0.6-3.3,0.6-3.7l-0.1-2.5l0.3-8L159.8,37.8z M109.1,58.8c-0.3,0-0.5,0-0.8,0c-0.1,0-0.2,0-0.4,0
	c-2.7-0.2-3.5-0.5-3.7-0.8c-0.3-0.4-0.4-1.5-0.5-2.3c0-0.3,0-0.5-0.1-0.8c-0.1-0.3,0-0.8,0-1.3s0-1.1,0-1.5
	c-0.1-0.6-0.4-4.1-0.4-4.4c0-0.4,0.2-6.3,0.4-7.9c0-0.3,0.1-0.8,0.1-1.2c0.3-2.3,0.5-3.9,0.3-4.4c-0.2-0.6-0.2-6.2,0.1-7.3
	c0.3-1.1,1.1-3,1.2-3.2c0.1-0.1,0.8-0.6,1.2-0.9c0.7-0.5,1.4-0.9,1.7-1.2c0.1-0.1,0.3-0.3,0.5-0.4l0,0c0.9-0.8,1.6-1.4,1.8-1.9
	c0.1-0.2,0.6-0.7,1-1.1c0.8-0.8,1.8-1.9,2.3-2.9c0.5-0.9,1.3-1.4,2-1.9c0.5-0.3,1-0.7,1.4-1.1c0.5-0.5,1.7-1.5,2.9-2.5
	c2-1.7,3.2-2.7,3.4-3.1c0.3-0.6,2-2.1,2.3-2.3c1.6-1.2,2.7-1.7,3.6-1.7c0.1,0,0.3,0,0.4,0c1.3,0.1,4.3,2.3,5.4,3.2
	c0,0,4.4,3.1,5.8,4.2c1.8,1.5,6.6,6.5,6.6,6.5l0,0c0,0,6.2,4.5,6.7,4.8c0.6,0.4,2.2,1.7,2.6,2.4c0.3,0.5,0.7,2.4,0.8,3l-0.2,4.9
	l0.7,6l-0.5,6.5l-0.3,7.9l0.1,2.5c0.1,1.2,0,2.6-0.3,3c-0.5,0.5-2,0.9-3.4,0.9c-0.2,0-0.4,0-0.6,0c-1.9-0.3-7.4-0.3-7.5-0.3
	c0,0-6-0.2-7.6-0.3c-0.2,0-0.6,0-1.4,0h-2.1c-2.6,0-4,0-4.2,0s-0.9-0.1-2.7-0.1l0,0c-1.7,0-5-0.1-5.1-0.1c-1.4,0-6.8,0.3-7.6,0.4
	c-0.1,0-0.4,0-0.7,0.1C113.1,58.4,110.8,58.8,109.1,58.8z"/>
<g>
	<path class="st2" d="M141.7,29.8c0.1,0,0.3-0.1,0.4-0.2l3-3.1c0.2-0.2,0.2-0.6,0-0.8c-0.2-0.2-0.6-0.2-0.8,0l-3,3.1
		c-0.2,0.2-0.2,0.6,0,0.8C141.4,29.7,141.6,29.8,141.7,29.8z"/>
	<path class="st2" d="M149.9,44.4c-0.3,0-0.6,0.3-0.6,0.6c0,1.2-1.1,1.3-1.3,1.3h-1.3c-0.9,0-1-0.8-1-1v-1.5h0.4
		c1.3,0,2.3-1,2.3-2.3v-2.9c0-0.3-0.3-0.6-0.6-0.6h-0.1h-0.1h-6.9c-0.3,0-0.6,0.3-0.6,0.6s0.3,0.6,0.6,0.6h6.6v1.2h-4.4
		c-0.3,0-0.6,0.3-0.6,0.6s0.3,0.6,0.6,0.6h4.4l0,0c0,0.7-0.5,1.2-1.2,1.2h-6.4c-0.7,0-1.2-0.5-1.2-1.2v-3.3c0-0.7,0.5-1.2,1.2-1.2h7
		c0.3,0,0.6-0.3,0.6-0.6s-0.3-0.6-0.6-0.6h-7c-1.3,0-2.3,1-2.3,2.3v3.3c0,1.1,0.8,2,1.8,2.3v0.8c0,0.3-0.4,1.6-2.4,1.6
		c-0.3,0-0.6,0.3-0.6,0.6s0.3,0.6,0.6,0.6c2.6,0,3.5-1.7,3.6-2.7c0,0,0,0,0-0.1v-0.8h4.2v1.5c0,0.9,0.6,2.2,2.2,2.2h1.3l0,0l0,0l0,0
		l0,0c0.2,0,1.1-0.1,1.7-0.7c0.4-0.4,0.6-1,0.6-1.7C150.5,44.7,150.2,44.4,149.9,44.4z"/>
	<path class="st2" d="M151.7,34c0-0.3-0.3-0.5-0.6-0.5h-14.2h-0.1c-0.8,0.1-2.5,0.9-2.5,2.9c0,0.3,0.3,0.6,0.6,0.6
		c0.3,0,0.6-0.3,0.6-0.6c0-1.4,1.2-1.7,1.5-1.8h13.6c-0.1,0.3-0.2,0.7-0.4,0.9c-0.2,0.2-0.5,0.3-0.9,0.3c-0.3,0-0.6,0.3-0.6,0.6
		s0.2,0.6,0.5,0.6c0.7,0,1.3-0.2,1.7-0.7C151.7,35.5,151.7,34.2,151.7,34z"/>
	<path class="st2" d="M148.8,30.9H147c-0.3,0-0.6,0.3-0.6,0.6c0,0.3,0.3,0.6,0.6,0.6h1.8h0.1v0.3c0,0.3,0.3,0.6,0.6,0.6
		s0.6-0.3,0.6-0.6v-3.9c0-0.2,0.1-1.4-0.6-2.2c-0.5-0.6-1.2-0.9-2.2-0.9c-0.3,0-0.6,0.3-0.6,0.6c0,0.3,0.3,0.6,0.6,0.6
		c0.6,0,1,0.2,1.3,0.5c0.5,0.5,0.4,1.4,0.4,1.4v0.1l0,0h-0.1h-1.8c-0.3,0-0.6,0.3-0.6,0.6c0,0.3,0.3,0.6,0.6,0.6h1.8h0.1v1.3
		C148.8,30.9,148.8,30.9,148.8,30.9z"/>
	<path class="st2" d="M136.9,33c0.3,0,0.6-0.3,0.6-0.6v-0.6h1.9c0.3,0,0.6-0.3,0.6-0.6c0-0.3-0.3-0.6-0.6-0.6h-1.9v-1.2h1.9
		c0.3,0,0.6-0.3,0.6-0.6c0-0.3-0.3-0.6-0.6-0.6h-1.9c0-0.3,0.3-1.8,2.1-1.9c0.3,0,0.6-0.3,0.5-0.6c0-0.3-0.3-0.6-0.6-0.5
		c-2.4,0.1-3.1,2.1-3.1,3.1v4C136.3,32.8,136.5,33,136.9,33z"/>
	<path class="st2" d="M141.5,32.8c0.1,0,0.3-0.1,0.4-0.2l1.1-1.1l1.5,1.3c0.1,0.1,0.2,0.1,0.4,0.1c0.2,0,0.3-0.1,0.4-0.2
		c0.2-0.2,0.2-0.6-0.1-0.8l-1.4-1.2l1.1-1.1c0.2-0.2,0.2-0.6,0-0.8c-0.2-0.2-0.6-0.2-0.8,0l-3,3.1c-0.2,0.2-0.2,0.6,0,0.8
		C141.2,32.7,141.4,32.8,141.5,32.8z"/>
</g>
<g>
	<path class="st2" d="M113.1,40.4c0-0.3-0.3-0.6-0.6-0.6c-0.3,0-0.6,0.3-0.6,0.6v3.9l0,0c0,0,0.1,0.8-0.4,1.4
		c-0.3,0.4-0.8,0.5-1.5,0.5c-0.3,0-0.6,0.3-0.6,0.6s0.3,0.6,0.6,0.6c1,0,1.8-0.3,2.4-0.9c0.8-0.9,0.8-2,0.7-2.2V40.4z"/>
	<path class="st2" d="M121.7,26.7c0.2-0.2,0.2-0.6-0.1-0.8c-0.2-0.2-0.6-0.2-0.8,0.1l-5.1,6.5c-0.2,0.2-0.2,0.6,0.1,0.8
		c0.1,0.1,0.2,0.1,0.3,0.1c0.2,0,0.3-0.1,0.4-0.2L121.7,26.7z"/>
	<path class="st2" d="M127.2,32.7l-3.7-4.2c-0.2-0.2-0.6-0.3-0.8-0.1c-0.2,0.2-0.3,0.6-0.1,0.8l3.7,4.2c0.1,0.1,0.3,0.2,0.4,0.2
		s0.3,0,0.4-0.1C127.4,33.3,127.4,32.9,127.2,32.7z"/>
	<path class="st2" d="M117.7,35.8c0,0.3,0.3,0.6,0.6,0.6h4.9c0.7,0,1.7-0.5,1.7-1.7c0-0.3-0.3-0.6-0.6-0.6c-0.3,0-0.6,0.3-0.6,0.6
		c0,0.5-0.4,0.6-0.6,0.6h-4.9C117.9,35.2,117.7,35.5,117.7,35.8z"/>
	<path class="st2" d="M121.6,38.2h-0.4c-2.6,0-4.7,2.1-4.7,4.7c0,2.6,2.1,4.7,4.7,4.7h0.3c2.6,0,4.7-2.1,4.7-4.7
		S124.1,38.2,121.6,38.2z M121.6,46.4h-0.4c-2,0-3.5-1.6-3.5-3.5c0-2,1.6-3.5,3.5-3.5h0.3c2,0,3.5,1.6,3.5,3.5
		C125.1,44.9,123.5,46.4,121.6,46.4z"/>
	<path class="st2" d="M115.1,29h-2v-3.1c0-0.3-0.3-0.6-0.6-0.6c-0.3,0-0.6,0.3-0.6,0.6V29h-2.2c-0.3,0-0.6,0.3-0.6,0.6
		c0,0.3,0.3,0.6,0.6,0.6h2.2v4c0,0.3,0.3,0.6,0.6,0.6s0.6-0.3,0.6-0.6v-4h2c0.3,0,0.6-0.3,0.6-0.6C115.7,29.2,115.4,29,115.1,29z"/>
	<path class="st2" d="M114.2,35.4l-4.9,3.6c-0.2,0.2-0.3,0.5-0.1,0.8c0.1,0.1,0.3,0.2,0.5,0.2c0.1,0,0.2,0,0.3-0.1l4.8-3.6
		c0.2-0.2,0.3-0.5,0.1-0.8C114.8,35.2,114.4,35.2,114.2,35.4z"/>
</g>
<image style="overflow:visible;enable-background:new    ;" width="51" height="89" xlink:href="36DB0A98EA5C2CEC.png"  transform="matrix(7.284106e-02 0 0 7.284106e-02 133.0175 60.2247)">
</image>
<path class="st1" d="M121.8,61.3h-2.6l0,0v0.6l0,0h1v0.6v0.2l0,0v0.6l0,0v1.3l0,0l0,0h0.6l0,0v-1.3l0,0v-0.6l0,0v-0.8h1l0,0V61.3
	L121.8,61.3"/>
<path class="st1" d="M115.9,63.4c0,0.1,0,0.2-0.1,0.3c0,0.1-0.1,0.2-0.2,0.3c-0.1,0.1-0.2,0.1-0.3,0.2c-0.1,0-0.2,0.1-0.3,0.1
	s-0.2,0-0.3-0.1c-0.1,0-0.2-0.1-0.3-0.2c-0.1-0.1-0.1-0.2-0.2-0.3c0-0.1-0.1-0.2-0.1-0.3v-1.9h-0.7v1.9c0,0.2,0,0.4,0.1,0.6
	c0.1,0.2,0.2,0.3,0.3,0.5c0.1,0.1,0.3,0.2,0.5,0.3c0.2,0.1,0.4,0.1,0.6,0.1c0.2,0,0.4,0,0.6-0.1c0.2-0.1,0.3-0.2,0.5-0.3
	c0.1-0.1,0.2-0.3,0.3-0.5c0.1-0.2,0.1-0.4,0.1-0.6v-1.9h-0.7L115.9,63.4z"/>
<path class="st1" d="M111.9,64.9c0,0.1,0,0.1,0,0.2s-0.1,0.1-0.1,0.2c0,0-0.1,0.1-0.2,0.1c-0.1,0-0.1,0-0.2,0.1l0,0l0,0v0.6l0,0
	c0.2,0,0.3,0,0.4-0.1c0.1-0.1,0.3-0.1,0.4-0.2c0.1-0.1,0.2-0.2,0.2-0.3c0.1-0.1,0.1-0.3,0.1-0.4v-3.5h-0.6V64.9z"/>
<path class="st1" d="M118.5,63.2c-0.1-0.1-0.2-0.2-0.2-0.3c-0.1-0.1-0.2-0.2-0.2-0.3c-0.1-0.1-0.1-0.2-0.2-0.3
	c0-0.1-0.1-0.2-0.1-0.3s0-0.3,0.1-0.4c0.1-0.1,0.1-0.2,0.2-0.3s0.2-0.2,0.3-0.2c0.1-0.1,0.2-0.1,0.3-0.1v-0.6
	c-0.2,0-0.4,0.1-0.6,0.1c-0.2,0.1-0.4,0.2-0.5,0.4c-0.1,0.1-0.3,0.3-0.4,0.5s-0.1,0.4-0.1,0.6c0,0.2,0,0.3,0.1,0.5
	c0,0.1,0.1,0.3,0.2,0.4c0.1,0.1,0.2,0.2,0.2,0.3c0.1,0.1,0.2,0.2,0.2,0.3c0.1,0.1,0.1,0.2,0.2,0.3c0,0.1,0.1,0.2,0.1,0.3
	c0,0.1,0,0.3-0.1,0.4s-0.1,0.2-0.2,0.3c-0.1,0.1-0.2,0.2-0.3,0.2c-0.1,0.1-0.2,0.1-0.3,0.1v0.6c0.2,0,0.4-0.1,0.6-0.1
	c0.2-0.1,0.4-0.2,0.5-0.3c0.1-0.1,0.3-0.3,0.3-0.5c0.1-0.2,0.1-0.4,0.1-0.6s0-0.4-0.1-0.5C118.6,63.4,118.5,63.3,118.5,63.2"/>
<path class="st1" d="M122.4,61.4v3.2c0,0.1,0,0.1,0.1,0.1h2.2v-0.6H123v-0.8h1.6v-0.6H123v-0.8h1.7v-0.6L122.4,61.4
	C122.5,61.3,122.4,61.3,122.4,61.4"/>
<path class="st1" d="M141.2,61.7h-2.6l0,0v0.6l0,0h1v0.6v0.2l0,0v0.6l0,0V65l0,0l0,0h0.6l0,0v-1.3l0,0v-0.6l0,0v-0.8h1l0,0V61.7
	C141.3,61.7,141.3,61.7,141.2,61.7"/>
<path class="st1" d="M141.9,61.8V65c0,0.1,0,0.1,0.1,0.1h2.2v-0.6h-1.7v-0.8h1.6v-0.6h-1.6v-0.8h1.7v-0.6L141.9,61.8
	C141.9,61.7,141.9,61.8,141.9,61.8"/>
<path class="st1" d="M128.1,61.3v2.5l-1.7-2.5h-0.8l0,0v3.4l0,0h0.6v-0.6V62l1.8,2.7h0.6l0,0v-3.4l0,0L128.1,61.3z"/>
<path class="st1" d="M146.7,61.7h-0.4h-0.4l-1.1,3.5h0.6l0,0l0.5-1.4l0,0h0.9h0.1l0.5,1.4l0,0h0.6L146.7,61.7z M146,63.2l0.3-0.8
	l0.3,0.8H146z"/>
</svg>
